<?xml version="1.0" standalone="no"?>
<!DOCTYPE svg PUBLIC "-//W3C//DTD SVG 20010904//EN"
 "http://www.w3.org/TR/2001/REC-SVG-20010904/DTD/svg10.dtd">
<svg version="1.0" xmlns="http://www.w3.org/2000/svg"
 width="253.000000pt" height="253.000000pt" viewBox="0 0 253.000000 253.000000"
 preserveAspectRatio="xMidYMid meet">
<metadata>
Created by potrace 1.14, written by Peter Selinger 2001-2017
</metadata>
<g transform="translate(0.000000,253.000000) scale(0.100000,-0.100000)"
fill="#000000" stroke="none">
<path d="M320 2411 c-13 -25 -13 -57 0 -80 7 -14 27 -20 92 -25 109 -9 154
-34 188 -101 l25 -50 0 -885 c0 -845 -1 -887 -19 -920 -42 -80 -80 -101 -196
-109 -81 -6 -85 -7 -94 -33 -6 -18 -6 -38 0 -55 l9 -28 897 -3 897 -2 10 52
c43 215 85 528 73 540 -5 5 -40 10 -76 11 l-67 2 -23 -65 c-37 -106 -75 -171
-137 -236 -113 -117 -235 -154 -503 -154 -162 0 -165 0 -195 26 -64 54 -64 50
-65 929 -1 435 2 823 6 863 14 152 68 206 219 219 79 8 84 9 93 36 6 17 6 37
0 55 l-9 27 -557 3 c-543 2 -557 2 -568 -17z"/>
</g>
</svg>
