<?xml version="1.0" standalone="no"?>
<!DOCTYPE svg PUBLIC "-//W3C//DTD SVG 20010904//EN"
 "http://www.w3.org/TR/2001/REC-SVG-20010904/DTD/svg10.dtd">
<svg version="1.0" xmlns="http://www.w3.org/2000/svg"
 width="512.000000pt" height="512.000000pt" viewBox="0 0 512.000000 512.000000"
 preserveAspectRatio="xMidYMid meet">
<metadata>
Created by potrace 1.14, written by Peter Selinger 2001-2017
</metadata>
<g transform="translate(0.000000,512.000000) scale(0.100000,-0.100000)"
fill="#000000" stroke="none">
<path d="M392 5106 c-133 -33 -267 -136 -330 -255 -66 -122 -62 25 -62 -2288
0 -1480 3 -2118 11 -2155 28 -138 135 -281 258 -346 122 -66 -25 -62 2288 -62
1480 0 2118 3 2155 11 138 28 281 135 346 258 66 122 62 -25 62 2288 0 1480
-3 2118 -11 2155 -28 138 -135 281 -258 346 -122 66 27 62 -2296 61 -1676 -1
-2121 -3 -2163 -13z m2173 -920 c44 -15 88 -33 98 -40 17 -13 12 -69 -93
-1147 -60 -624 -110 -1146 -110 -1161 0 -22 5 -28 20 -28 18 0 467 -82 527
-97 21 -5 28 13 123 306 56 171 104 311 107 311 14 0 388 -51 390 -53 1 -2 9
-30 18 -62 61 -235 61 -666 0 -908 -43 -168 -148 -312 -271 -369 -61 -28 -80
-32 -179 -36 -90 -4 -127 0 -196 17 -142 36 -362 156 -561 306 l-46 36 -38
-58 c-100 -151 -264 -271 -405 -295 -81 -14 -104 -8 -168 43 -143 112 -303
378 -342 565 l-12 61 97 136 c111 155 100 148 284 163 79 6 92 9 88 23 -9 31
-75 467 -95 626 -23 186 -52 479 -81 820 -11 132 -30 322 -42 422 l-22 183 30
31 c95 100 280 189 467 225 45 8 120 12 202 10 109 -3 143 -8 210 -30z"/>
</g>
</svg>
